# xmcd
# 
# Track frame offsets:
#     150
#     31411
#     69849
#     104170
#     139017
#     186954
#     218550
#     244640
#     267931
# 
# Disc length: 3919
# 
# Revision: 3
# Processed by: cddbd v1.5.2PL0 Copyright (c) Steve Scherf et al.
# Submitted via: BonkEnc v1.0.8
# 
DISCID=7f0f4d09
DTITLE=Charlie Mariano, Gregor Huebner, Richie Beirach, Veit Huebner - Beauty
DYEAR=2004
DGENRE=Contemporary Jazz
TTITLE0=Randy
TTITLE1=Waltz For Fee
TTITLE2=Three Leaves
TTITLE3=Plum Island
TTITLE4=Elm
TTITLE5=Nardis
TTITLE6=My Foolish Heart
TTITLE7=Rectilinear
TTITLE8=Beauty
EXTD=YEAR: 2006
EXTT0=
EXTT1=
EXTT2=
EXTT3=
EXTT4=
EXTT5=
EXTT6=
EXTT7=
EXTT8=
PLAYORDER=
